Genre:Animation | Comedy | Family
Language:English
IMDb:http://www.imdb.com/title/tt0472181/
Source:CAM.XViD-GANE13/IMAGINE Thanks!

Format profile : Base Media
Codec ID : isom
File size : 1.13 GiB
Duration : 1h 34mn
Overall bit rate : 1 727 Kbps

Video
ID : 1
Format : AVC
Format/Info : Advanced Video Codec
Format profile : High@L4.1
Format settings, CABAC : Yes
Format settings, ReFrames : 3 frames
Format settings, GOP : N=1
Codec ID : avc1
Codec ID/Info : Advanced Video Coding
Duration : 1h 34mn
Bit rate mode : Variable
Bit rate : 1 500 Kbps
Maximum bit rate : 6 092 Kbps
Width : 720 pixels
Height : 384 pixels
Display aspect ratio : 1.875
Frame rate mode : Constant
Frame rate : 29.970 fps
Color space : YUV
Chroma subsampling : 4:2:0
Bit depth : 8 bits
Scan type : Progressive
Bits/(Pixel*Frame) : 0.181
Stream size : 1 008 MiB (87%)
Writing library : x264

Audio
ID : 2
Format : AAC
Format/Info : Advanced Audio Codec
Format version : Version 4
Format profile : LC
Format settings, SBR : No
Codec ID : 40
Duration : 1h 34mn
Bit rate mode : Variable
Bit rate : 224 Kbps
Maximum bit rate : 300 Kbps
Channel(s) : 2 channels
Channel positions : Front: L R
Sampling rate : 44.1 KHz
Stream size : 151 MiB (13%)


Plot:
When the evil wizard Gargamel chases the tiny blue Smurfs out of their village, they tumble from their magical world and into ours
 
http://www.pix2links.com/images/10366412881434704740.png
 
http://www.pix2links.com/images/08998851732850659558.png
 
http://www.pix2links.com/images/57041505026053324658.png
 
http://www.pix2links.com/images/58593901798167589484.png
 
http://www.pix2links.com/images/50213654642270095610.png